<svg width="32" height="32" viewBox="0 0 32 32" fill="none" xmlns="http://www.w3.org/2000/svg">
<path d="M6.87891 8.21335C7.49357 7.49335 8.19357 6.85202 8.96157 6.29602" stroke="#8257E5" stroke-width="1.5" stroke-linecap="round" stroke-linejoin="round"/>
<path d="M22.6659 25.976C20.7592 27.2533 18.4672 28 15.9992 28C14.7832 28 13.6112 27.816 12.5059 27.48" stroke="#8257E5" stroke-width="1.5" stroke-linecap="round" stroke-linejoin="round"/>
<path d="M8.46527 25.3333C6.75727 23.9533 5.44527 22.1107 4.69727 20" stroke="#8257E5" stroke-width="1.5" stroke-linecap="round" stroke-linejoin="round"/>
<path d="M4.69697 12C4.25297 13.2533 3.99964 14.5947 3.99964 16" stroke="#8257E5" stroke-width="1.5" stroke-linecap="round" stroke-linejoin="round"/>
<path d="M25.9507 22.6667C27.236 20.7587 28 18.4733 28 16C28 9.372 22.628 4 16 4" stroke="#8257E5" stroke-width="1.5" stroke-linecap="round" stroke-linejoin="round"/>
<path fill-rule="evenodd" clip-rule="evenodd" d="M14.942 12.1533L19.8674 15.0666C20.5767 15.4866 20.5767 16.5133 19.8674 16.9333L14.9407 19.8466C14.218 20.2746 13.3047 19.7533 13.3047 18.9133V13.0866C13.3047 12.2466 14.2194 11.7253 14.942 12.1533V12.1533Z" stroke="#E1E1E6" stroke-width="1.5" stroke-linecap="round" stroke-linejoin="round"/>
</svg>
