<svg width="722" height="66" viewBox="0 0 722 66" fill="none" xmlns="http://www.w3.org/2000/svg">
<path d="M9.33523 50.2614V65.1932H1V30.2841H9.0625V43.8182H9.35227C9.94318 42.2045 10.9091 40.9432 12.25 40.0341C13.6023 39.125 15.2557 38.6705 17.2102 38.6705C19.0511 38.6705 20.6534 39.0795 22.017 39.8977C23.3807 40.7045 24.4375 41.8466 25.1875 43.3239C25.9489 44.8011 26.3239 46.5284 26.3125 48.5057V65.1932H17.9773V50.142C17.9886 48.6875 17.625 47.5511 16.8864 46.733C16.1477 45.9148 15.108 45.5057 13.767 45.5057C12.892 45.5057 12.1193 45.6989 11.4489 46.0852C10.7898 46.4602 10.2727 47 9.89773 47.7045C9.53409 48.4091 9.34659 49.2614 9.33523 50.2614Z" fill="white"/>
<path d="M38.8963 65.6364C37.2259 65.6364 35.7429 65.358 34.4474 64.8011C33.1634 64.233 32.1463 63.3807 31.3963 62.2443C30.6577 61.0966 30.2884 59.6591 30.2884 57.9318C30.2884 56.4773 30.544 55.25 31.0554 54.25C31.5668 53.25 32.2713 52.4375 33.169 51.8125C34.0668 51.1875 35.1009 50.7159 36.2713 50.3977C37.4418 50.0682 38.6918 49.8466 40.0213 49.733C41.5099 49.5966 42.7088 49.4545 43.6179 49.3068C44.527 49.1477 45.1861 48.9261 45.5952 48.642C46.0156 48.3466 46.2259 47.9318 46.2259 47.3977V47.3125C46.2259 46.4375 45.9247 45.7614 45.3224 45.2841C44.7202 44.8068 43.9077 44.5682 42.8849 44.5682C41.7827 44.5682 40.8963 44.8068 40.2259 45.2841C39.5554 45.7614 39.1293 46.4205 38.9474 47.2614L31.2599 46.9886C31.4872 45.3977 32.0724 43.9773 33.0156 42.7273C33.9702 41.4659 35.277 40.4773 36.9361 39.7614C38.6065 39.0341 40.6122 38.6705 42.9531 38.6705C44.6236 38.6705 46.1634 38.8693 47.5724 39.267C48.9815 39.6534 50.2088 40.2216 51.2543 40.9716C52.2997 41.7102 53.1065 42.6193 53.6747 43.6989C54.2543 44.7784 54.544 46.0114 54.544 47.3977V65.1932H46.7031V61.5455H46.4986C46.0327 62.4318 45.4361 63.1818 44.7088 63.7955C43.9929 64.4091 43.1463 64.8693 42.169 65.1761C41.2031 65.483 40.1122 65.6364 38.8963 65.6364ZM41.4702 60.1818C42.3679 60.1818 43.1747 60 43.8906 59.6364C44.6179 59.2727 45.1974 58.7727 45.6293 58.1364C46.0611 57.4886 46.277 56.7386 46.277 55.8864V53.3977C46.0384 53.5227 45.7486 53.6364 45.4077 53.7386C45.0781 53.8409 44.7145 53.9375 44.3168 54.0284C43.919 54.1193 43.5099 54.1989 43.0895 54.267C42.669 54.3352 42.2656 54.3977 41.8793 54.4545C41.0952 54.5795 40.4247 54.7727 39.8679 55.0341C39.3224 55.2955 38.902 55.6364 38.6065 56.0568C38.3224 56.4659 38.1804 56.9545 38.1804 57.5227C38.1804 58.3864 38.4872 59.0455 39.1009 59.5C39.7259 59.9545 40.5156 60.1818 41.4702 60.1818Z" fill="white"/>
<path d="M59.6406 65.1932V30.2841H67.9759V43.4943H68.1463C68.4872 42.6989 68.9702 41.9318 69.5952 41.1932C70.2315 40.4545 71.0384 39.8523 72.0156 39.3864C73.0043 38.9091 74.1861 38.6705 75.5611 38.6705C77.3793 38.6705 79.0781 39.1477 80.6577 40.1023C82.2486 41.0568 83.5327 42.5284 84.5099 44.517C85.4872 46.5057 85.9759 49.0398 85.9759 52.1193C85.9759 55.0852 85.5043 57.5682 84.5611 59.5682C83.6293 61.5682 82.3679 63.0682 80.777 64.0682C79.1974 65.0682 77.4418 65.5682 75.5099 65.5682C74.1918 65.5682 73.0497 65.3523 72.0838 64.9205C71.1179 64.4886 70.3054 63.9205 69.6463 63.2159C68.9986 62.5114 68.4986 61.7557 68.1463 60.9489H67.8906V65.1932H59.6406ZM67.8054 52.1023C67.8054 53.5114 67.9929 54.7386 68.3679 55.7841C68.7543 56.8295 69.3054 57.642 70.0213 58.2216C70.7486 58.7898 71.6179 59.0739 72.6293 59.0739C73.652 59.0739 74.5213 58.7898 75.2372 58.2216C75.9531 57.642 76.4929 56.8295 76.8565 55.7841C77.2315 54.7386 77.419 53.5114 77.419 52.1023C77.419 50.6932 77.2315 49.4716 76.8565 48.4375C76.4929 47.4034 75.9531 46.6023 75.2372 46.0341C74.5327 45.4659 73.6634 45.1818 72.6293 45.1818C71.6065 45.1818 70.7372 45.4602 70.0213 46.017C69.3054 46.5739 68.7543 47.3693 68.3679 48.4034C67.9929 49.4375 67.8054 50.6705 67.8054 52.1023Z" fill="white"/>
<path d="M90.3438 65.1932V39.0114H98.679V65.1932H90.3438ZM94.5199 35.9602C93.3494 35.9602 92.3438 35.5739 91.5028 34.8011C90.6619 34.017 90.2415 33.0739 90.2415 31.9716C90.2415 30.8807 90.6619 29.9489 91.5028 29.1761C92.3438 28.392 93.3494 28 94.5199 28C95.7017 28 96.7074 28.392 97.5369 29.1761C98.3778 29.9489 98.7983 30.8807 98.7983 31.9716C98.7983 33.0739 98.3778 34.017 97.5369 34.8011C96.7074 35.5739 95.7017 35.9602 94.5199 35.9602Z" fill="white"/>
<path d="M118.763 39.0114V45.1477H102.246V39.0114H118.763ZM105.706 32.7386H114.041V56.9602C114.041 57.4716 114.121 57.8864 114.28 58.2045C114.45 58.5114 114.695 58.733 115.013 58.8693C115.331 58.9943 115.712 59.0568 116.155 59.0568C116.473 59.0568 116.808 59.0284 117.161 58.9716C117.524 58.9034 117.797 58.8466 117.979 58.8011L119.24 64.8182C118.842 64.9318 118.28 65.0739 117.553 65.2443C116.837 65.4148 115.979 65.5227 114.979 65.5682C113.024 65.6591 111.348 65.4318 109.95 64.8864C108.564 64.3295 107.501 63.4659 106.763 62.2955C106.036 61.125 105.683 59.6534 105.706 57.8807V32.7386Z" fill="white"/>
<path d="M145.545 47.0057L137.892 47.2102C137.812 46.6648 137.597 46.1818 137.244 45.7614C136.892 45.3295 136.432 44.9943 135.864 44.7557C135.307 44.5057 134.659 44.3807 133.92 44.3807C132.955 44.3807 132.131 44.5739 131.449 44.9602C130.778 45.3466 130.449 45.8693 130.46 46.5284C130.449 47.0398 130.653 47.483 131.074 47.858C131.506 48.233 132.273 48.5341 133.375 48.7614L138.42 49.7159C141.034 50.2159 142.977 51.0455 144.25 52.2045C145.534 53.3636 146.182 54.8977 146.193 56.8068C146.182 58.6023 145.648 60.1648 144.591 61.4943C143.545 62.8239 142.114 63.858 140.295 64.5966C138.477 65.3239 136.398 65.6875 134.057 65.6875C130.318 65.6875 127.369 64.9205 125.21 63.3864C123.063 61.8409 121.835 59.7727 121.528 57.1818L129.761 56.9773C129.943 57.9318 130.415 58.6591 131.176 59.1591C131.937 59.6591 132.909 59.9091 134.091 59.9091C135.159 59.9091 136.028 59.7102 136.699 59.3125C137.369 58.9148 137.71 58.3864 137.722 57.7273C137.71 57.1364 137.449 56.6648 136.938 56.3125C136.426 55.9489 135.625 55.6648 134.534 55.4602L129.966 54.5909C127.341 54.1136 125.386 53.233 124.102 51.9489C122.818 50.6534 122.182 49.0057 122.193 47.0057C122.182 45.2557 122.648 43.7614 123.591 42.5227C124.534 41.2727 125.875 40.3182 127.614 39.6591C129.352 39 131.403 38.6705 133.767 38.6705C137.312 38.6705 140.108 39.4148 142.153 40.9034C144.199 42.3807 145.33 44.4148 145.545 47.0057Z" fill="white"/>
<rect x="1.5" y="0.811707" width="15" height="15" rx="3.5" fill="#18181B" stroke="#27272A"/>
<rect x="21.5" y="0.811707" width="15" height="15" rx="3.5" fill="#4C1D95" stroke="#6D28D9"/>
<rect x="41.5" y="0.811707" width="15" height="15" rx="3.5" fill="#5B21B6" stroke="#7C3AED"/>
<rect x="61.5" y="0.811707" width="15" height="15" rx="3.5" fill="#6D28D9" stroke="#8B5CF6"/>
<rect x="81.5" y="0.811707" width="15" height="15" rx="3.5" fill="#7C3AED" stroke="#A78BFA"/>
<rect x="101.5" y="0.811707" width="15" height="15" rx="3.5" fill="#8B5CF6" stroke="#C4B5FD"/>
</svg>
